<svg version="1.1" id="svg10" sodipodi:docname="aurubis-group.svg" inkscape:version="1.2.2 (732a01da63, 2022-12-09)" xmlns:inkscape="http://www.inkscape.org/namespaces/inkscape" xmlns:sodipodi="http://sodipodi.sourceforge.net/DTD/sodipodi-0.dtd" xmlns="http://www.w3.org/2000/svg" xmlns:svg="http://www.w3.org/2000/svg" viewBox="0 0 283.48 44.25">
  <defs id="defs14"/>
  <sodipodi:namedview id="namedview12" pagecolor="#ffffff" bordercolor="#000000" borderopacity="0.25" inkscape:showpageshadow="2" inkscape:pageopacity="0.0" inkscape:pagecheckerboard="0" inkscape:deskcolor="#d1d1d1" showgrid="false" inkscape:zoom="4.8591549" inkscape:cx="137.06087" inkscape:cy="42.085507" inkscape:window-width="1920" inkscape:window-height="991" inkscape:window-x="-9" inkscape:window-y="-9" inkscape:window-maximized="1" inkscape:current-layer="logos_rz/aurubis-group"/>
  <title id="title2">logos_rz/aurubis-group</title>
  <g id="logos_rz/aurubis-group" stroke="none" stroke-width="1" fill="none" fill-rule="evenodd" transform="translate(0,-23)" style="--darkreader-inline-stroke: none;" data-darkreader-inline-stroke="">
    <g id="Group" transform="translate(0,23)">
      <path d="M 206.588,11.879 V 25.93 h 0.096 c 0.58,-3.345 4.498,-4.898 8.32,-4.898 v 0 h 4.104 c 11.753,0 13.204,4.271 13.204,9.706 l -5.9e-4,4.033926 C 232.27728,40.116362 230.72591,44.236 219.108,44.236 v 0 h -4.057 c -5.61,0 -7.932,-2.209 -8.947,-4.843 v 0 h -0.096 v 3.881 h -7.361 V 11.879 Z m 61.57211,9.729335 c 11.3753,0.0187 13.7031,0.83176 13.80389,5.487665 v 0 h -8.583 c -0.484,-1.255 -1.355,-1.515 -6.918,-1.463 -6.653,0.062 -7.872,0.016 -7.867,2.263 l 8e-4,0.05551 c 0.0237,0.910499 0.59804,2.001592 5.8332,1.957492 v 0 h 7.087 c 11.125,0 11.948,2.779 11.948,6.584 0,5.645 -2.502,7.218 -13.095,7.218 v 0 h -8.662 c -8.562,0 -11.867,-0.827 -11.867,-6.094 v 0 h 8.743 c 0,1.17 0.484,1.965 5.756,1.965 v 0 h 3.983 c 5.362,0.04 6.404,-0.546 6.432,-2.269 0.02,-1.362 -0.44,-2.474 -4.883,-2.518 v 0 h -8.705 c -8.659,-0.041 -11.222,-1.229 -11.222,-7.083 0,-5.309 4.934,-6.104 11.319,-6.104 z M 100.026,21.942 v 12.252 c 0,2.09 2.656,4.091 6.719,4.091 v 0 h 2.795 c 3.966,0 6.565,-2.544 6.565,-5.597 v 0 -10.746 h 8.337 v 21.332 h -8.337 v -3.436 h -0.097 c -1.645,2.968 -4.699,3.867 -9.68,3.867 -5.757,0 -14.923,-0.312 -14.923,-9.511 v 0 -12.252 z m 68.724,0 v 12.252 c 0,2.09 2.656,4.091 6.719,4.091 v 0 h 2.794 c 3.967,0 6.566,-2.544 6.566,-5.597 v 0 -10.746 h 8.337 v 21.332 h -8.337 v -3.436 h -0.097 c -1.645,2.968 -4.699,3.867 -9.681,3.867 -5.755,0 -14.922,-0.312 -14.922,-9.511 v 0 -12.252 z M 72.2,11.85 90.335,43.281 81.283,43.286 77.791,37.225 H 57.086 L 54.024,42.539 49.495,34.696 62.677,11.85 Z m 172.748,10.092 v 21.332 h -8.237 V 21.942 Z m -97.229,-0.334 c 6.772,0 9.106,2.509 9.106,8.405 v 0 1.19 h -7.126 c 0,-2.718 -0.725,-4.014 -4.451,-4.014 -3.191,0 -7.13,1.736 -7.13,4.287 v 0 11.798 h -8.247 V 21.942 h 7.667 v 4.057 h 0.097 c 1.064,-3.388 5.877,-4.391 10.084,-4.391 z m 70.879,5.178 h -6.045 c -4.065,0 -6.205,0.786 -6.205,4.347 v 0 2.96 c 0,3.56 2.14,4.346 6.205,4.346 v 0 h 6.045 c 4.922,0 5.403,-1.48 5.403,-4.117 l -6.4e-4,-3.580881 C 223.97952,28.206208 223.41955,26.786 218.598,26.786 Z M 67.439,19.258 60.375,31.517 h 14.128 z m 177.509,-7.379 v 6.208 h -8.237 v -6.208 z" id="Combined-Shape" fill="#000000" sodipodi:nodetypes="cccscsccscsscccccccscccccscssscssccscccsccscccsscsscccccccssccccsscsscccccccsscccccccccccccccccsscccsscccccccsssscsscsccsccccccccc" style="--darkreader-inline-fill: #000000;" data-darkreader-inline-fill=""/>
      <path d="m 4.645,35.365 27.039,0.003 4.559,7.922 H 0 Z M 31.772,11.85 49.906,43.282 40.854,43.286 27.231,19.637 Z M 24.968,0 29.466,7.866 15.909,31.398 H 6.895 Z" id="path6" fill="#0076a7" style="--darkreader-inline-fill: #005e86;" data-darkreader-inline-fill=""/>
    </g>
  </g>
</svg>