<svg xmlns="http://www.w3.org/2000/svg" xmlns:xlink="http://www.w3.org/1999/xlink" version="1.1" id="layer" x="0px" y="0px" style="enable-background:new 0 0 652 652;" xml:space="preserve" viewBox="21.26 270.23 599.74 104.87">
<style type="text/css">
	.st0{fill:#5A595C;}
	.st1{fill:#9D1C31;}
	.st2{fill:#51C6DB;}
</style>
<g>
	<g>
		<g>
			<path class="st0" d="M54.8,375c91.1-8.7,183.7-13.1,277-13.1c93.6,0,185.7,4.5,277.1,13.2v-1c-90.9-10.7-183.3-16.3-277.1-16.3     c-93.8,0-186.1,5.7-277,16.3L54.8,375L54.8,375z"/>
		</g>
		<g>
			<path class="st1" d="M201.4,322.5c-2.8,1.7-8.7,4.7-11.2,5.4c-1.2,0.3-2.4,0.1-3-0.6c-0.4-0.3-0.6-0.8-0.6-1.4     c0.2-1.4,2.4-4.9,6.6-7l1.4-0.7c3-1.4,3.4-1.7,5.8-2.2c2.5-0.6,5.7-0.8,6.8-0.1c0.1,0.1,0.2,0.2,0.2,0.2     C207.5,317,204.4,320.6,201.4,322.5L201.4,322.5z M151.3,311.2c1.5-1.4,3.1-2.6,3.6-2.9c2.9-1.8,4.2-2.2,6.2-1.6     c1.3,0.4,1.4,1.1,1.5,2c0.1,0.8-0.8,1.6-1.7,2.1c-1.9,1.1-4.3,2-6.1,2.8c-0.2,0.1-6.5,2.5-6.8,2.1     C147.6,314.9,149.8,312.6,151.3,311.2L151.3,311.2z M318.1,327.1c-0.7-1.4-3.5-1.4-5.4-0.7c-1.9,0.6-4.8,1.3-5.8,0.5     c-0.8-0.6,0.5-2.7,2.2-5.2c1.3-2,2.9-4.5,4.1-7.2c1-2.3,1.2-4,0.6-5.2c-0.8-1.7-2.8-2.4-6.3-3.1c-3.5-0.7-9.8,2.6-16.1,6     c-1.1,0.6-2,1-2.5,1.3c-2.7,1.3-3.5,0.7-5.8-2.6c-2.6-3.8-8.1-2.3-12.5-0.5c-2.2,0.9-4.3,2-5.9,3c-1.7,0.9-3.4,1.9-3.9,1.7     c-0.5-0.2-1.4-1-2.4-1.9c-1.4-1.2-3.1-2.7-4.4-3.2c-2.2-1-5.7,0.9-11,3.7l-1.8,0.9c-4.5,2.4-10,5.7-14.5,8.4l-4.3,2.6     c-3.3,1.9-5.8,1-6.4,0.1c-0.6-0.9,4.5-6.9,4.7-10.2c0.2-4.3-8.3-6.4-14.8-6.9c-7.3-0.6-13.6,2.6-20.9,7.3     c-11,8.8-27.8,12.9-34.1,13.2c0,0-0.5,0-1.7-0.2c-1.2-0.2-3.7-1.8-3.9-2.9c-0.3-1.1,0.6-2.5,1.3-2.9c0.8-0.3,3.1-1.2,5.8-2.2     c3.5-1.3,7.5-2.8,10-3.9c3.4-1.6,6.4-3.8,6.3-9.5c-0.1-4.8-6.1-7.5-10.1-7.2c-4,0.3-10.8,4.3-13.9,7.4c-3.1,3.2-8.7,11-9.5,11.8     c-0.8,0.8-16.2,3.8-16.4,3.8c-0.5,0-0.8,0.2-0.8,0.1c0.1-0.3,4.4-4.6,5.1-14.1c0.7-9.6-14.5-14.8-14.6-14.8     c0.1-0.1,0.2-0.2,0.3-0.4c0.7-0.9,2.2-2.8,2.8-6.6c1-6.4-3.7-11.9-8.5-14.8c-4.7-2.9-12.4-1.5-15.8-0.3l-2.1,0.7     c-2.9,1-5.8,2-7.5,2.3c-0.3,0-0.4,0-0.5,0c-0.2-0.1-0.1-0.8,0-1.3c0.1-0.8,0.2-1.8-0.2-2.6c-1.1-2.1-4.5-1.2-7.3-0.1     c-0.1,0-0.2,0.1-0.3,0.2c-5.6,9-23.2,31.8-26.3,35c-1.4,1.5-4.6,5.3-8,9.5c-4.1,4.9-8.3,10-10.2,12c-2.5,2.5-3.9,5.9-3.6,8.6     c0.2,1.6,1,2.8,2.2,3.5c3,1.9,5.7-1.1,8.5-4.1c0.8-0.8,1.5-1.7,2.3-2.4c3.7-3.7,15.7-19,23-29.2c5.9-8.4,11.5-12.7,15.6-15.9     c0.7-0.5,1.3-1,1.9-1.5c3.8-3.1,11.2-6.3,18-7.8c5.6-1.3,6.6,1.1,7.7,4c0.2,0.4,0.3,0.8,0.5,1.2c0.6,1.4,0.4,3.3-0.4,5.2     c-1.1,2.3-2.9,4.2-5,4.9c-1.5,0.5-3.1,0.9-4.8,1.3c-3.1,0.8-6.4,1.6-9.1,3.1c-4.1,2.3-7.9,7.4-7.2,12c0.1,0.9,0.6,1.7,1.4,2.3     c2.5,1.8,7.9,1,11,0.4l0.2,0c2.9-0.4,7.5-3.6,10.8-5.9c1.2-0.8,2.2-1.6,2.9-2c2-1.2,5.6-1.4,9.5,1.5c0.9,0.6,1.3,1.5,1.5,2.7     c0.4,3.1-2,7.4-4.4,10.4c-3.2,3.9-8.7,4-13.5,4h-0.9c-2.2,0.1-5-1-7.4-2c-3.3-1.3-6.1-2.4-7.5-0.9c-2.2,2.4-2.8,8.4-1.3,11.1     c1.7,3,7.2,7.9,16.6,7.2c6.8-0.5,11.7-4.1,15-6.6c1.3-1,2.4-1.9,3-2c1.3-0.2,3.3-0.2,10.7-1.7c7.3-1.5,11.7-3.2,12.1-2.6     c0,0,3.4,7.8,10.9,10.2c5.5,1.8,20.7-2.8,21.3-3c0.9-0.3,1.7-0.6,2.5-0.9c2.3-0.8,4.3-1.5,6.3-1.7c0.9-0.1,2.2,0.7,3.6,1.8     c2.4,1.8,5.3,3.9,9.3,3.6c4.9-0.4,9.9-2.9,13.5-4.8c1.3-0.6,2.4-1.2,3.2-1.4c1.7-0.7,2.4,0.1,3.7,1.8c0.6,0.7,1.2,1.6,2.1,2.2     c2.5,2.1,8,1.3,16.8-2.7c4.8-2.2,9.5-5,13.2-7.2c2.3-1.3,4.2-2.4,5.6-3.1c1.1-0.5,1.6-0.6,1.7-0.6c0,0.3-0.3,1.1-2.2,3.2     c-2.6,2.8-3.9,5-4.5,7.6c-0.2,0.6-0.1,1.2,0.3,1.6c0.9,1.1,3.2,1.1,5.3,1c2.3,0,3.2-0.9,5.3-2.9l1.3-1.2c3-2.8,12.8-9,16.7-10.8     c2.6-1.1,3.5-0.7,3.8-0.5c0.5,0.4,0.4,1.1,0.2,1.5c-0.3,1-2.7,3.6-4.5,5.5c-2,2.1-3,3.3-3.2,3.8c-0.1,0.6,0.1,1.3,0.6,2     c1,1.2,2.7,1.9,4.7,1.9c2.4,0,4.5-1.8,7.3-4c1.3-1,2.7-2.2,4.3-3.3c3.9-2.8,9.1-5.7,12.2-7.4l2.1-1.2c0.8-0.5,1.5-0.6,1.8-0.4     c0.4,0.2,0.5,1.1,0.2,2.4c-0.2,0.9-0.6,1.8-1.2,2.8c-0.8,1.7-1.9,3.7-2.2,6.8c-0.5,5,4.3,7.1,8.8,7.5c2.2,0.2,5.8-0.9,9.4-2.7     C316.7,332.1,319.1,329.8,318.1,327.1L318.1,327.1z"/>
		</g>
	</g>
	<path class="st2" d="M440.8,334h-11.4c0.4-3.6,0.5-9.5,0.5-15.1v-5c0-5.7-0.1-11.9-0.8-15.1h6.5c2.4,0,3.7,0.8,4.1,2.4   c3.1-2.3,6.5-3.2,9.9-3.2c12.2,0,13.7,7.3,13.7,12.7v9.9c0,5.5,0.3,10.5,0.7,13.5h-6.8c-3.1,0-4.6-1.9-4.6-5v-14.3   c0-5.7-0.5-10-7.6-10c-1.6,0-3.2,0.3-4.6,0.8v12.7C440.4,322.6,440.4,330.3,440.8,334L440.8,334z M407.3,298.7h11.4   c-0.4,3.7-0.5,9.5-0.5,15.1v5c0,5.7,0.3,11.9,0.8,15.1h-6.5c-2.4,0-3.7-0.8-4.1-2.4c-3.1,2.3-6.5,3.2-9.9,3.2   c-12.2,0-13.6-7.3-13.6-12.7v-9.9c0-5.5-0.3-10.5-0.7-13.5h6.8c3.1,0,4.6,1.9,4.6,5V318c0,5.7,0.5,10,7.6,10c1.6,0,3.2-0.3,4.6-0.8   v-12.7C407.7,310,407.6,302.3,407.3,298.7L407.3,298.7z M375.2,307.1c-2-1.9-5.7-3-9.5-3c-2.7,0-5.9,0.4-5.9,3.5   c0,2.3,2.7,3.4,6.8,4.9c4.7,1.8,10.3,4.1,10.3,10.7c0,10.5-11.2,11.9-16.5,11.9c-3,0-6.2-0.3-8.6-0.9c-2.4-0.7-3-1.8-3-5v-3.9   c2.7,1.9,7,2.8,10.5,2.8c4.3,0,6.5-1.2,6.5-3.9c0-2.6-2.3-3.5-8.4-5.8c-4.2-1.6-8.7-3.8-8.7-9.9c0-8.9,10.1-11.2,16.2-11.2   c3.7,0,6.6,0.7,8.5,1.5c1.6,0.8,1.8,1.8,1.8,3.9L375.2,307.1L375.2,307.1z"/>
	<path class="st2" d="M513.6,316.1c0,8.1,2.8,11.8,8.4,11.8c5.4,0,8.1-3.6,8.1-11.8s-2.7-11.9-8.1-11.9   C516.4,304.2,513.6,308,513.6,316.1L513.6,316.1z M540.4,316c0,11.8-6.8,19.1-18.9,19.1c-12.2,0-18.4-6.6-18.4-18.7   c0-11.9,6.6-18.8,18.8-18.8C534.1,297.6,540.4,304.1,540.4,316L540.4,316z M496,298.7c1.9,0,4.9-0.1,6.4-0.4   c-0.3,1.1-1.1,3.9-1.6,5.1c-0.9,2-2.2,2.7-6.9,2.7h-4.1v12c0,4.5,0.1,12.2,0.5,15.8h-11.5c0.4-3.6,0.5-11.4,0.5-15.8v-12h-3.5   c-3.1,0-5.8,0.4-7.2,1.2v-3.6c0-3.1,0.5-5,5-5H496L496,298.7z"/>
	<path class="st2" d="M606.8,323.7v0.8c0,2.7,0.1,7.2,0.5,9.5h-11.5c0.4-2.3,0.5-6.9,0.5-9.5v-0.8c0-1.5-0.4-3-1.6-5.4   c-2.6-5.1-8.2-15-13.1-19.5c1.9-0.3,5.4-0.4,7.6-0.4c4.5,0,5.8,1.5,6.9,3.2c0.9,1.5,4.7,8.9,5.9,12c1.5-3.5,4.5-9.7,5.8-11.9   c1.1-1.6,2.6-3.4,6.4-3.4c1.8,0,4.6,0.1,6.8,0.4c-3.5,3.1-10.1,14.1-12.8,19.1C606.9,320.3,606.8,321.5,606.8,323.7L606.8,323.7z    M578,336c-4.3,0-5.3-1.6-8-5.5c-1.5-2.2-6.2-10.1-7-11.8c-0.4-0.8-0.5-1.5,0.3-1.9c3.5-2,4.3-4.2,4.3-6.6c0-2.8-1.1-5.3-5.1-5.3   c-1.2,0-2.3,0.1-3.1,0.4v12.8c0,4.5,0.1,12.2,0.5,15.8h-11.1c0.4-3.5,0.5-9.5,0.5-15.1v-5c0-5.7-0.1-11.9-0.8-15.1   c5.3,0,12.3-0.3,15.7-0.3c5.9,0,13.8,1.2,13.8,10.1c0,3.6-1.6,6.6-4.6,8.5c-0.5,0.4-0.5,0.7,0,1.5c3.8,5.7,8.4,12,12.6,16.5   C584.5,335.5,580.6,336,578,336L578,336z"/>
</g>
</svg>