<svg xmlns="http://www.w3.org/2000/svg" xmlns:xlink="http://www.w3.org/1999/xlink" width="240" height="66" viewBox="0 0 461.15 126.83" role="img" aria-label="DIAKOVERE"><title>DIAKOVERE</title><path d="M15.2 36a2.83 2.83 0 0 1 2.8 2.82v12.35A2.83 2.83 0 0 0 20.84 54H36v15.17A2.83 2.83 0 0 1 33.17 72H4.28A4.29 4.29 0 0 1 0 67.76V36z" style="fill: #ae0c21" /><path d="M54 69.19V54h15.17A2.83 2.83 0 0 1 72 56.83v10.94A4.37 4.37 0 0 1 67.6 72H56.82A2.83 2.83 0 0 1 54 69.19zm0-53.99a2.83 2.83 0 0 1-2.82 2.8H38.83A2.84 2.84 0 0 0 36 20.84V36H20.83A2.83 2.83 0 0 1 18 33.17V4.28A4.29 4.29 0 0 1 22.24 0H54z" style="fill: #d90047" /><path d="M74.89 53.94a2.83 2.83 0 0 1-2.83-2.82V38.76a2.83 2.83 0 0 0-2.82-2.82H54.09V20.76a2.83 2.83 0 0 1 2.83-2.83h28.89a4.29 4.29 0 0 1 4.28 4.24v31.77z" style="fill: #7f103f" /><path d="M109 72.08c13.2 0 17.33 6.89 17.33 15.47v23c0 8.59-4.13 15.47-17.33 15.47H90.1V72.08zm-11.94 47.71h11.67c8.18 0 10.61-3.41 10.61-9.72V88c0-6.32-2.43-9.72-10.61-9.72H97.06zm46.66 6.21h-7V72.08h7zm52.81 0h-7.05l-4.45-13H162.1l-4.37 13h-7l18.23-53.94h9.39zm-22.92-48.9L164 107h19.27zm36.77 48.9h-7V72.08h7zm9.56-27.46L241.32 126H233l-20.9-27.46 19.44-26.48h8.18zm63.58 11.91c0 9-5.59 16.36-19.52 16.36s-19.52-7.37-19.52-16.36V87.63c0-9 5.59-16.36 19.52-16.36s19.52 7.37 19.52 16.36zm-32.07-.16c0 6.64 4.05 10.37 12.55 10.37s12.56-3.73 12.56-10.37v-22.5c0-6.64-4.05-10.36-12.56-10.36s-12.55 3.72-12.55 10.36zm36-38.23h6.73L310 120l15.8-47.92h6.72L314.71 126h-9.4zm51.6 0h31.75v6.24h-24.75v16.94h23v6.24h-23v18.31h24.87V126h-31.83zm61.72 34.42H387.6V126h-7V72.08h20.57c11.58 0 15.63 5 15.63 13.28v7.78c0 6.4-2.34 10.77-8.58 12.55l14 20.33h-8zm.23-28.16h-13.4v22H401c6.64 0 8.91-1.87 8.91-7.13v-7.75c-.03-5.34-2.3-7.12-8.91-7.12zm28.35-6.24h31.75v6.24h-24.81v16.92h23v6.24h-23v18.31h24.86V126h-31.83z" style="fill: #363f43" /></svg>