<?xml version="1.0" encoding="UTF-8" standalone="no"?>
<!-- Created with Inkscape (http://www.inkscape.org/) -->

<svg
   xmlns:svg="http://www.w3.org/2000/svg"
   xmlns="http://www.w3.org/2000/svg"
   version="1.1"
   width="454.47348"
   height="293.55673"
   id="svg4258">
  <defs
     id="defs4260">
    <clipPath
       id="clipPath4400-5">
      <path
         d="m 298.205,93.543 0,-57.962 253.37,0 0,57.962"
         id="path4402-6" />
    </clipPath>
  </defs>
  <g
     transform="translate(-117.05777,-366.29731)"
     id="layer1">
    <g
       transform="matrix(1.25,0,0,-1.25,-22.084999,1050.6634)"
       id="g4274">
      <g
         transform="matrix(4.0229349,0,0,4.0229349,324.81572,501.12468)"
         id="g4388">
        <path
           d="m 324.3125,476.84375 c -2.12957,0.067 -4.2693,0.80586 -5.96875,1.90625 -7.035,3.72375 -8.11375,11.68875 -10.125,18.4375 -2.13875,0.0638 -4.20875,-0.58875 -6.09375,-1.03125 -0.375,0.695 -0.68375,1.4625 -0.8125,2.21875 2.01125,0.695 4.0175,1.405 6.28125,1.53125 -0.87875,3.97375 -2.2075,7.74625 -3.59375,11.40625 -0.4375,0.7575 -0.4975,1.84 -1.25,2.40625 -3.9575,-0.94625 -9.105,-2.27375 -12.875,0.0625 -1.19625,0.8825 -1.88125,2.14 -1.8125,3.59375 0.185,1.955 1.42875,3.39875 3.125,4.28125 5.33875,2.58625 11.8225,0.74875 16.21875,-2.46875 3.395,1.1975 6.72875,2.395 10.1875,3.40625 10.61625,2.8375 21.5325,5.37875 33.21875,5 l 0,0.0625 c 16.96875,-0.065 33.69625,-2.65 49.46875,-6.75 l 0.25,-0.1875 L 399.875,518.25 c -6.34625,1.44875 -12.87375,2.65125 -19.53125,3.28125 -13.13375,0.82125 -26.24375,1.1975 -39.25,0.25 -10.80625,-0.75625 -20.98375,-3.0325 -30.90625,-6.125 3.26375,-4.7925 4.43,-10.54125 6.1875,-16.09375 5.7175,-0.8825 10.70375,-4.33125 13.59375,-9.3125 1.38,-2.83875 2.76,-6.565 1.1875,-9.78125 -0.50125,-1.01125 -1.245,-1.6475 -2.125,-2.40625 -1.40164,-0.90945 -3.06242,-1.27084 -4.71875,-1.21875 z m 0.9375,3.4375 c 0.75375,0.0625 1.49625,-0.009 2.0625,0.625 1.695,1.63625 1.1925,4.60875 0.375,6.5625 -1.75875,4.6075 -5.945,7.9575 -10.53125,9.15625 1.0675,-4.605 2.1175,-9.15125 4.25,-13.3125 0.82125,-1.325 2.08375,-2.90375 3.84375,-3.03125 z m 24.8125,8.90625 c -1.57816,-0.0116 -2.90859,0.53484 -3.84375,1.75 -0.5625,0.81875 -0.6875,2.27375 -0.0625,3.15625 0.75625,1.0725 2.02625,1.4975 3.28125,1.625 1.7625,0.12375 3.9,-0.235 4.84375,-1.9375 0.49875,-0.82 0.37875,-1.96 -0.125,-2.78125 -0.815,-1.13625 -2.14875,-1.46625 -3.40625,-1.78125 -0.23563,-0.0238 -0.46205,-0.0296 -0.6875,-0.0312 z m -18.28125,9.1875 c -2.33234,-0.0319 -4.74125,0.46187 -6.65625,1.1875 -3.645,1.39 -6.84375,5.30625 -6.84375,9.46875 0.0638,2.39625 1.49125,4.3625 3.375,5.625 6.22,3.65875 13.97,0.68375 19.5625,-2.28125 0.06,0.0638 0.19,0.12625 0.125,0.1875 0.25375,1.7675 1.92875,3.3375 3.5625,3.71875 4.275,0.63 8.10625,-1.13125 11.3125,-3.71875 1.31875,2.46 4.1425,3.71875 6.96875,3.96875 l 0.0625,-0.0625 c 3.895,0.125 7.17625,-1.6975 10,-4.09375 0.88,1.8325 2.39875,3.02625 4.09375,3.78125 3.2675,1.07125 6.705,0.02 9.15625,-2.3125 0.30875,0.8825 1.125,1.6825 1.875,2.1875 3.7125,1.765 7.6775,-0.42 10.5,-2.3125 -0.0612,-0.82 -0.31375,-1.64875 -0.625,-2.40625 -1.19625,0.63 -2.83375,1.57125 -4.15625,0.5625 -0.24625,-0.37875 -0.435,-0.745 -0.375,-1.25 l 3.21875,-11.4375 c -2.2625,-0.0625 -4.70875,-0.1275 -7.09375,-0.0625 l -0.5625,1.78125 c -0.3125,-0.44125 -0.68375,-0.905 -1.125,-1.28125 -2.45125,-1.76625 -5.985,-1.19625 -8.5625,-0.125 -3.89125,1.89375 -6.965,5.4875 -7.03125,10.03125 -2.07125,1.82625 -4.76375,3.9175 -7.71875,2.71875 -1.44875,-0.82125 -1.40875,-2.7675 -1.15625,-4.28125 0.44,-2.39625 1.20875,-5.055 3.59375,-6.125 1.57125,-0.6975 3.08625,0.33375 4.21875,1.34375 0.31375,-1.0725 0.68875,-2.14625 0.875,-3.28125 -3.20375,-2.08125 -8.17,-1.45125 -11.3125,0.375 -3.2675,1.95875 -6.035,5.33625 -5.78125,9.5 -0.5675,0.5675 -1.24625,1.02625 -1.9375,1.40625 -1.06875,0.5025 -2.64875,1.38375 -3.78125,0.3125 -0.25,-0.3775 -0.3125,-0.8075 -0.3125,-1.3125 1.005,-3.71875 2.0825,-7.52875 3.09375,-11.25 -2.63875,0 -5.42375,-0.0638 -7.9375,0.0625 l -2.875,9.96875 c -2.1325,1.45125 -4.5175,2.46125 -6.96875,3.09375 -2.39,0.56625 -5.48875,1.07875 -7.5,-0.5625 -0.5675,-0.63 -0.74875,-1.52375 -0.5625,-2.40625 4.21125,0.37875 8.79875,-0.18875 11.4375,-3.28125 0.755,-1.1975 1.31875,-2.89375 0.6875,-4.34375 l -0.625,-1 c -1.63313,-1.48312 -3.88641,-2.06187 -6.21875,-2.09375 z m 0.125,2.28125 c 0.62797,0.0234 1.185,0.275 1.4375,0.9375 0.31625,1.64125 -0.4275,3.2725 -1.8125,4.34375 -1.31875,0.7575 -2.95875,1.16125 -4.59375,0.84375 0.6925,-2.07875 1.3325,-4.36125 3.15625,-5.75 0.50063,-0.18875 1.18453,-0.39844 1.8125,-0.375 z m 53.75,0.90625 c 0.88995,-0.0182 1.59266,0.43094 2.03125,1.09375 0.88625,2.52375 -0.685,4.79125 -1.25,7.0625 -0.505,1.325 -1.67625,2.715 -3.25,3.09375 -0.81625,0.0625 -1.655,-0.245 -2.09375,-0.9375 -0.94125,-2.58625 0.4,-5.105 1.15625,-7.4375 0.69,-1.26125 1.62,-2.3375 3,-2.84375 0.13344,-0.0233 0.27911,-0.0287 0.40625,-0.0312 z m -91.3125,14.0625 c 1.98803,-0.13582 4.06781,0.79125 5.90625,1.3125 l 0.4375,0.1875 c -1.95,1.83125 -5.10875,3.1975 -8,2 -0.50125,-0.31625 -1.1875,-0.80625 -1.1875,-1.5 0.0663,-0.6325 0.3775,-1.15125 0.875,-1.46875 0.62813,-0.33063 1.30607,-0.48598 1.96875,-0.53125 z m 13.28125,16.6875 c -4.51375,0 -5.3825,3.39625 -6.09375,6.75 -1.06375,5.02375 -0.955,6.9375 3.6875,6.9375 1.09875,0 3.035,-0.29 3.8125,-0.4375 l 1.4375,-6.6875 -4.28125,0 -0.40625,2 1.5,0 -0.625,2.96875 c -0.45125,0.14625 -0.9775,0.25 -1.4375,0.25 -1.57125,0 -1.8125,-0.73375 -0.9375,-4.875 0.5475,-2.5775 1.0275,-4.9375 2.75,-4.9375 1.46125,0 1.435,1.1075 1.15625,2.34375 l 2.75,0 c 0.75625,-2.78125 -0.60875,-4.3125 -3.3125,-4.3125 z m 51.34375,1.59375 -2.8125,1.15625 -0.3125,1.46875 -1.03125,0 -0.34375,1.59375 1.0625,0 -1.21875,5.6875 c -0.12125,0.5675 -0.13125,2.0625 2.09375,2.0625 0.61875,0 0.98375,-0.0575 1.34375,-0.0937 l 0.34375,-1.59375 c -0.13875,0.0388 -0.30375,0.0312 -0.46875,0.0312 -0.8375,0 -0.74125,-0.46 -0.59375,-1.15625 l 1.0625,-4.9375 1.34375,0 0.3125,-1.59375 -1.3125,0 0.53125,-2.625 z m -42.15625,2.4375 c -3.39125,0 -4.21625,2.1625 -4.75,4.6875 -0.6125,2.895 -0.6,4.9375 2.71875,4.9375 1.1975,0 2.1875,-0.33625 2.90625,-0.90625 0.74375,-0.5725 1.24875,-1.39625 1.5,-2.40625 l -2.625,0 c -0.16375,0.7675 -0.52625,1.65625 -1.4375,1.65625 -1.125,0 -0.8225,-1.65125 -0.59375,-2.75 l 4.9375,0 c 0.71625,-2.96625 0.805,-5.21875 -2.65625,-5.21875 z m 9.15625,0 c -3.39125,0 -4.21625,2.16125 -4.75,4.6875 -0.61625,2.8925 -0.62875,4.9375 2.6875,4.9375 3.31625,0 4.20375,-2.045 4.8125,-4.9375 0.53625,-2.52625 0.64,-4.6875 -2.75,-4.6875 z m 8.6875,0 c -1.6575,0 -3.76125,0.6225 -4.1875,2.625 -0.62125,2.94375 4.01,2.50375 3.59375,4.46875 -0.1325,0.62375 -0.61875,0.9375 -1.125,0.9375 -0.51375,0 -0.76375,-0.14375 -0.84375,-0.4375 -0.0675,-0.29125 -0.0125,-0.7025 0.0937,-1.125 l -2.53125,0 c -0.6925,2.585 0.6925,3.15625 2.9375,3.15625 2.13625,0 3.72125,-1.2 4.0625,-2.8125 0.6325,-2.96375 -3.93375,-2.90625 -3.625,-4.375 0.1325,-0.6225 0.53125,-0.96875 1.09375,-0.96875 0.2675,0 0.495,0.02 0.625,0.1875 0.14875,0.16375 0.135,0.54375 0,1.1875 l 2.5,0 c 0.57,-2.00125 -0.8425,-2.84375 -2.59375,-2.84375 z m 16.25,0 c -1.655,0 -3.7625,0.6225 -4.1875,2.625 -0.625,2.94375 4.00875,2.50375 3.59375,4.46875 -0.1325,0.62375 -0.64875,0.9375 -1.15625,0.9375 -0.515,0 -0.76,-0.14375 -0.84375,-0.4375 -0.065,-0.29125 0.0175,-0.7025 0.125,-1.125 l -2.53125,0 c -0.6925,2.585 0.68875,3.15625 2.9375,3.15625 2.1325,0 3.6875,-1.2 4.03125,-2.8125 0.6275,-2.96375 -3.90375,-2.90625 -3.59375,-4.375 0.1325,-0.6225 0.5275,-0.96875 1.09375,-0.96875 0.265,0 0.465,0.02 0.59375,0.1875 0.15375,0.16375 0.1375,0.54375 0,1.1875 l 2.53125,0 c 0.57,-2.00125 -0.84125,-2.84375 -2.59375,-2.84375 z m 13.625,0 c -3.39125,0 -4.21875,2.1625 -4.75,4.6875 -0.6125,2.895 -0.59875,4.9375 2.71875,4.9375 1.20125,0 2.18375,-0.33625 2.90625,-0.90625 0.74125,-0.5725 1.22125,-1.39625 1.46875,-2.40625 l -2.59375,0 c -0.1625,0.7675 -0.53125,1.65625 -1.4375,1.65625 -1.13125,0 -0.82375,-1.65125 -0.59375,-2.75 l 4.9375,0 c 0.72,-2.96625 0.80625,-5.21875 -2.65625,-5.21875 z m 10.15625,0 c -0.97,0 -1.71375,0.29875 -2.40625,1.125 l -0.0312,0 0.1875,-0.9375 -2.5625,0 -1.96875,9.25 2.59375,0 1.34375,-6.375 c 0.17625,-0.8225 0.45625,-1.46875 1.28125,-1.46875 0.825,0 0.83125,0.64625 0.65625,1.46875 l -1.34375,6.375 2.53125,0 1.34375,-6.375 c 0.17375,-0.8225 0.45625,-1.46875 1.28125,-1.46875 0.82625,0 0.8325,0.64625 0.65625,1.46875 l -1.34375,6.375 2.5625,0 1.5625,-7.40625 c 0.275,-1.28375 -0.65125,-2.03125 -1.875,-2.03125 -1.05875,0 -1.8475,0.37875 -2.625,1.1875 -0.26625,-0.73625 -0.9275,-1.1875 -1.84375,-1.1875 z m 11.75,0 c -1.66,0 -3.7625,0.6225 -4.1875,2.625 -0.62,2.94375 4.0075,2.50375 3.59375,4.46875 -0.13375,0.62375 -0.64625,0.9375 -1.15625,0.9375 -0.51125,0 -0.76125,-0.14375 -0.84375,-0.4375 -0.0625,-0.29125 0.0138,-0.7025 0.125,-1.125 l -2.53125,0 c -0.69125,2.585 0.68875,3.15625 2.9375,3.15625 2.135,0 3.715,-1.2 4.0625,-2.8125 0.6275,-2.96375 -3.9375,-2.90625 -3.625,-4.375 0.1325,-0.6225 0.5325,-0.96875 1.09375,-0.96875 0.26625,0 0.46375,0.02 0.59375,0.1875 0.1525,0.16375 0.13375,0.54375 0,1.1875 l 2.53125,0 c 0.56875,-2.00125 -0.8475,-2.84375 -2.59375,-2.84375 z m -47.65625,0.1875 0.53125,9.34375 -1.71875,3.4375 2.6875,0 6.28125,-12.78125 -2.5,0 -2.75,6.5 -0.0312,0 0.0625,-6.5 -2.5625,0 z m -22.3125,1.40625 c 1.21625,0 0.9075,1.29125 0.71875,2.1875 l -2.34375,0 c 0.1675,-0.78625 0.44125,-2.1875 1.625,-2.1875 z m 47.71875,0 c 1.21875,0 0.90625,1.29125 0.71875,2.1875 l -2.34375,0 c 0.1675,-0.78625 0.44,-2.1875 1.625,-2.1875 z M 325.59375,538 c 1.09125,0 0.9975,0.985 0.59375,2.90625 -0.59875,2.81875 -0.95875,3.40625 -1.90625,3.40625 -0.94625,0 -1.06375,-0.5875 -0.46875,-3.40625 C 324.22,538.985 324.5,538 325.59375,538 z"
           transform="matrix(0.8,0,0,-0.8,-283.31844,392.79819)"
           id="path4390"
           style="fill:#ff0029;fill-opacity:1;fill-rule:nonzero;stroke:none" />
      </g>
      <g
         transform="matrix(4.0229349,0,0,4.0229349,274.87501,467.42455)"
         id="g4392" />
      <g
         transform="matrix(4.0229349,0,0,4.0229349,-1744.8998,170.33885)"
         id="g4396">
        <g
           clip-path="url(#clipPath4400-5)"
           id="g4398">
          <g
             transform="translate(496.084,90.651)"
             id="g4404" />
        </g>
      </g>
      <g
         transform="matrix(4.0229349,0,0,4.0229349,176.93264,354.30767)"
         id="g4408" />
      <g
         transform="matrix(4.0229349,0,0,4.0229349,198.35074,343.04345)"
         id="g4412" />
      <g
         transform="matrix(4.0229349,0,0,4.0229349,228.65551,329.53057)"
         id="g4416" />
      <g
         transform="matrix(4.0229349,0,0,4.0229349,254.15689,334.34587)"
         id="g4420" />
      <g
         transform="matrix(4.0229349,0,0,4.0229349,277.02326,324.52604)"
         id="g4424" />
      <g
         transform="matrix(4.0229349,0,0,4.0229349,306.40677,334.34587)"
         id="g4428" />
      <g
         transform="matrix(4.0229349,0,0,4.0229349,326.96799,354.58525)"
         id="g4432" />
      <g
         transform="matrix(4.0229349,0,0,4.0229349,351.91019,343.04345)"
         id="g4436" />
      <g
         transform="matrix(4.0229349,0,0,4.0229349,383.07184,351.5761)"
         id="g4440" />
      <g
         transform="matrix(4.0229349,0,0,4.0229349,420.78686,334.34587)"
         id="g4444" />
    </g>
  </g>
</svg>
