<svg data-name="Ebene 1" viewBox="0 0 3938.93 822.31" xmlns="http://www.w3.org/2000/svg"><path d="M2395.08 151.25c-60.33 0-89.49 23.08-91.92 66.41h59.53c.81-11.34 7.29-19.84 32.39-19.84 22.27 0 32.8 7.29 32.8 18.22 0 9.72-6.07 13.36-21.06 15l-38.87 4c-52.64 5.67-76.54 27.54-76.54 67.22 0 36.85 22.68 65.19 70.87 65.19 32.8 0 52.24-10.53 69.24-31.59v25.51h55.88v-134c0-56.28-32.8-76.13-92.33-76.13m34 130.8c0 22.27-21.06 38.87-53.46 38.87-15.79 0-25.11-7.29-25.11-21.06 0-10.53 6.48-19.44 27.13-22.27l35.23-4.86a103.21 103.21 0 0 0 16.2-3.24Zm-230.82-48.6c51.83 6.89 77.75 23.08 77.75 65.6 0 42.93-30.37 68.44-94.76 68.44-70.06 0-94.76-27.94-96-68.84h60.33c1.62 15 12.15 22.27 35.64 22.27 23.89 0 33.61-5.67 33.61-17 0-10.53-8.1-15.39-29.16-18.22l-21.46-2.84c-44.95-6.07-70.86-23.48-70.86-64 0-38.87 28.75-67.63 89.09-67.63 55.88 0 85.85 22.27 88.68 66.41h-59.53c-2-11.74-8.5-19-29.15-19-20.25 0-27.94 6.89-27.94 15.79s4.86 13.77 22.27 16.2l21.46 2.83m-209.17-82.2c53.05 0 80.18 23.49 80.18 90.71v119.46h-61.15V244.79c0-27.13-11.74-39.28-37.26-39.28-23.08 0-36.85 12.15-36.85 39.28v116.63h-61.15v-204.1h57.5v23.49c8.5-15.79 25.92-29.56 58.72-29.56m-233.72 0c-60.34 0-89.49 23.08-91.92 66.41h59.6c.81-11.34 7.29-19.84 32.4-19.84 22.27 0 32.8 7.29 32.8 18.22 0 9.72-6.08 13.36-21.06 15l-38.87 4c-52.65 5.67-76.54 27.54-76.54 67.22 0 36.85 22.68 65.19 70.86 65.19 32.8 0 52.24-10.53 69.25-31.59v25.51h55.88v-134c0-56.29-32.8-76.13-92.33-76.13m34 130.8c0 22.27-21.06 38.88-53.45 38.88-15.8 0-25.11-7.29-25.11-21.06 0-10.53 6.48-19.44 27.13-22.27l35.23-4.86a103.41 103.41 0 0 0 16.2-3.24Zm-234.87-130.8c51.83 0 79 23.49 79 90.71v119.47h-61.15V244.79c0-27.13-11.74-39.28-37.25-39.28-23.08 0-36.85 12.15-36.85 39.28v116.63h-61.15V78.36h61.55v98.81c10.53-15 27.13-25.92 55.88-25.92m-182 6.07h46.57v49.81h-46.57v79.37c0 21.87 11.34 27.54 29.16 27.54 7.29 0 17.41-1.21 17.41-1.21v49a148.7 148.7 0 0 1-29.16 3.24c-49 0-78.56-22.27-78.56-71.67v-86.27h-30.78v-49.81h30.78V97.79h61.15Zm-213.81-7.69c0-49.4 31.18-75.73 80.18-75.73 15.8 0 25.92 2.43 25.92 2.43v49.4s-8.5-.81-15.8-.81c-19 0-29.16 6.48-29.16 24.3v8.1h45v49.81h-45v154.29h-61.15V207.13H1128v-49.81h30.78v-7.69m-108.12 7.69h61.15v204.1h-57.5v-23.49c-8.51 15.79-25.92 29.56-57.91 29.56-52.26 0-79.4-23.49-79.4-90.71V157.32h61.15v116.63c0 27.13 11.75 39.28 36.45 39.28 22.27 0 36-12.15 36-39.28Zm-269.29 147h121.87v57.1H715.75V78h65.6Zm-561.66 128A212.6 212.6 0 1 0 7.09 219.68c0 117.35 95.24 212.6 212.6 212.6m95.67-120.76 17.86-17H329c-45.07 0-85.47-14.89-108.85-40 19.56-11.9 43.79-17.43 77.38-17.43 8.93 0 21.69.85 33.59 2.12l10.21-9.78a403.74 403.74 0 0 0-48-3c-11.48 0-21.69.43-32.32 1.28l7.66-9.35c6-.43 18.71-.85 27.21-.85 22.54 0 37.42.85 54.43 3.4l9.78-9.35c-17.86-3-42.52-4.68-65.06-4.68-4.68 0-10.63 0-18.28.43l5.52-9.35h8.94c31.88 0 55.7 1.7 77.38 5.53l9.78-9.35c-24.23-4.25-53.57-6.8-83.34-6.8h-7.22l4.67-8.93h8.08a462 462 0 0 1 86.31 7.66l10.13-9.75c-30.61-6-63.35-8.93-98.65-8.93-15.31 0-30.61.85-45.07 2.12-17 36.56-44.22 57.83-74.83 57.4-11.9-.43-26.79-5.53-45.93-15.73L114.67 201l5.52-5.1 41.25 17.86 8.93-6.8L87 169.09l-12.76 9.78-29.73-12.33.43 12.33c40 18.28 56.55 28.49 98.65 58.68 54.85 39.11 103.75 60.38 171.78 74M219.69 417C111.26 417 22.4 328.11 22.4 219.68c0-108.85 88.87-197.29 197.29-197.29C328.54 22.39 417 110.83 417 219.68 417 328.11 328.54 417 219.69 417m561.66 341.12h-65.6V474.65h65.6ZM923.09 548c53 0 80.18 23.49 80.18 90.71v119.41h-61.15V641.5c0-27.13-11.74-39.28-37.26-39.28-23.08 0-36.85 12.15-36.85 39.28v116.62h-61.15V554h57.5v23.49c8.5-15.79 25.92-29.56 58.72-29.56m316.26-73.3v283.49h-57.5v-19c-13.36 15.39-33.61 25.11-63.17 25.11-70.87 0-96.38-42.52-96.38-108.12S1047.81 548 1118.68 548c26.73 0 46.17 8.1 59.53 21.06v-94.41Zm-59.53 181.42c0-34-14.17-53.86-47.78-53.86s-47.78 19.84-47.78 53.86 14.17 53.86 47.78 53.86 47.78-19.84 47.78-53.86m162.4 108.15c-52.24 0-79.37-23.49-79.37-90.71V554H1324v116.65c0 27.13 11.74 39.28 36.45 39.28 22.27 0 36-12.15 36-39.28V554h61.15v204.1h-57.5v-23.47c-8.5 15.79-25.92 29.56-57.91 29.56m131.6-68.84h60.34c1.62 15 12.15 22.27 35.64 22.27 23.89 0 33.61-5.67 33.61-17 0-10.53-8.1-15.39-29.16-18.23l-21.46-2.83c-45-6.07-70.87-23.49-70.87-64 0-39.28 25.51-67.63 89.09-67.63 56.29 0 85.85 22.27 88.69 66.41h-59.53c-2-11.74-8.5-19-29.16-19-20.25 0-27.94 6.88-27.94 15.79s4.86 13.77 22.27 16.2l21.46 2.84c51.83 6.88 77.75 23.08 77.75 65.6 0 42.92-28.35 68.44-94.76 68.44-70.06 0-94.76-27.94-96-68.84m289.13-91.52v79.37c0 21.87 11.34 27.53 29.16 27.53 7.29 0 17.41-1.21 17.41-1.21v49a148.7 148.7 0 0 1-29.16 3.24c-49 0-78.56-22.27-78.56-71.68v-86.27H1671V554h30.78v-59.5h61.15V554h46.57v49.81Zm164 2c-21.87 0-38.07 10.93-38.07 37.26v115h-61.15V554h57.5v23.49h.41c8.1-15.79 25.11-29.56 55.88-29.56a106.73 106.73 0 0 1 11.34.81v58.72a197.67 197.67 0 0 0-25.92-1.62M2184.49 554l-117 275.37h-64.79l36.44-80.18L1957.31 554h67.63l44.55 122.7 47.37-122.7ZM2391 524.46c-36.45 0-47 13-47 28.35 0 15 8.91 21.87 35.23 25.11l40.09 4.86c59.53 7.29 91.92 33.61 91.92 89.9 0 60.34-42.12 91.52-121.49 91.52-89.49 0-120.27-38.47-124.72-98.4h66.82c2.43 23.08 10.93 41.31 57.91 41.31 39.28 0 53.86-10.93 53.86-30.37 0-16.2-9.31-25.51-44.95-30l-40.09-4.86c-52.24-6.48-82.21-30.77-82.21-84.64 0-51 35.64-88.68 114.6-88.68 73.3 0 109.34 29.15 115 89.49h-66.82c-3.24-19.84-13-33.61-48.19-33.61m247 23.49c77.75 0 109.74 42.92 109.74 108.12s-32 108.12-109.74 108.12-109.74-42.93-109.74-108.12S2560.3 548 2638.05 548m0 162c33.61 0 47.78-19.84 47.78-53.86s-14.17-53.86-47.78-53.86-47.78 19.84-47.78 53.86 14.17 53.86 47.78 53.86m130 23.89V474.65h61.15v283.47h-36.85q-24.3 0-24.3-24.3m164 30.37c-52.24 0-79.37-23.49-79.37-90.71V554h61.15v116.65c0 27.13 11.75 39.28 36.45 39.28 22.27 0 36-12.15 36-39.28V554h61.15v204.1h-57.5v-23.47c-8.5 15.79-25.92 29.56-57.91 29.56m225.55-160.36v79.37c0 21.87 11.34 27.53 29.16 27.53 7.29 0 17.41-1.21 17.41-1.21v49a148.69 148.69 0 0 1-29.16 3.24c-49 0-78.56-22.27-78.56-71.68v-86.25h-30.77V554h30.77v-59.5h61.15V554h46.57v49.81Zm125.93-76.94h-61.15v-52.24h61.15Zm0 231.23h-61.15V554h61.15ZM3413.11 548c77.75 0 109.74 42.92 109.74 108.12s-32 108.12-109.74 108.12-109.74-42.93-109.74-108.12S3335.36 548 3413.11 548m0 162c33.61 0 47.78-19.84 47.78-53.86s-14.17-53.86-47.78-53.86-47.78 19.84-47.78 53.86S3379.5 710 3413.11 710m245.8-162c53.05 0 80.18 23.49 80.18 90.71v119.41h-61.15V641.5c0-27.13-11.74-39.28-37.26-39.28-23.08 0-36.85 12.15-36.85 39.28v116.62h-61.15V554h57.5v23.49c8.51-15.79 25.92-29.56 58.72-29.56m96.38 147.4h60.34c1.62 15 12.15 22.27 35.64 22.27 23.89 0 33.61-5.67 33.61-17 0-10.53-8.1-15.39-29.16-18.23l-21.46-2.83c-44.95-6.07-70.87-23.49-70.87-64 0-39.28 25.51-67.63 89.09-67.63 56.29 0 85.85 22.27 88.68 66.41h-59.53c-2-11.74-8.5-19-29.16-19-20.25 0-27.94 6.88-27.94 15.79s4.86 13.77 22.27 16.2l21.46 2.84c51.83 6.88 77.75 23.08 77.75 65.6 0 42.92-28.34 68.44-94.76 68.44-70.06 0-94.76-27.94-96-68.84" transform="translate(-7.09 -7.08)" style="fill:#000e4c;fill-opacity:1"/></svg>