<?xml version="1.0" encoding="UTF-8" standalone="no"?>
<svg
   xmlns:dc="http://purl.org/dc/elements/1.1/"
   xmlns:cc="http://creativecommons.org/ns#"
   xmlns:rdf="http://www.w3.org/1999/02/22-rdf-syntax-ns#"
   xmlns:svg="http://www.w3.org/2000/svg"
   xmlns="http://www.w3.org/2000/svg"
   viewBox="0 0 687.0625 159.8625"
   height="159.8625"
   width="687.0625"
   xml:space="preserve"
   version="1.1"
   id="svg2"><metadata
     id="metadata8"><rdf:RDF><cc:Work
         rdf:about=""><dc:format>image/svg+xml</dc:format><dc:type
           rdf:resource="http://purl.org/dc/dcmitype/StillImage" /></cc:Work></rdf:RDF></metadata><defs
     id="defs6"><clipPath
       id="clipPath18"
       clipPathUnits="userSpaceOnUse"><path
         id="path20"
         d="M 0,1278.93 0,0 l 5496.54,0 0,1278.93 -5496.54,0 z" /></clipPath></defs><g
     transform="matrix(1.25,0,0,-1.25,0,159.8625)"
     id="g10"><g
       transform="scale(0.1,0.1)"
       id="g12"><g
         id="g14"><g
           clip-path="url(#clipPath18)"
           id="g16"><path
             id="path22"
             style="fill:#4f4c4c;fill-opacity:1;fill-rule:nonzero;stroke:none"
             d="m 1667.74,764.184 0,-159.079 c 0,-17.304 -11.72,-29.027 -28.46,-29.027 -16.75,0 -29.03,11.723 -29.03,29.027 l 0,161.309 c 0,33.492 -21.21,50.797 -49.12,50.797 -17.86,0 -33.49,-6.141 -48,-15.629 l 0,-196.477 c 0,-17.304 -11.72,-29.027 -28.47,-29.027 -16.74,0 -29.02,11.723 -29.02,29.027 l 0,177.497 c 0,14.515 -7.81,23.449 -16.74,28.468 -7.82,4.465 -16.75,6.141 -27.91,6.141 -18.98,0 -35.17,-2.793 -52.47,-7.813 l 0,-204.293 c 0,-17.304 -11.72,-29.027 -28.47,-29.027 -16.74,0 -29.02,11.723 -29.02,29.027 l 0,217.688 c 0,15.629 9.49,27.91 25.12,32.93 27.35,8.929 56.93,14.515 87.07,14.515 28.46,0 51.91,-7.816 70.33,-24.004 22.32,15.075 51.91,24.004 77.03,24.004 67.54,0 107.16,-39.633 107.16,-106.054" /><path
             id="path24"
             style="fill:#4f4c4c;fill-opacity:1;fill-rule:nonzero;stroke:none"
             d="m 1941.8,945.027 c 0,-18.972 -15.08,-34.047 -34.06,-34.047 -18.41,0 -33.48,15.075 -33.48,34.047 0,17.864 15.07,33.493 33.48,33.493 18.98,0 34.06,-15.629 34.06,-33.493 z m -105.5,0 c 0,-18.972 -15.07,-34.047 -33.49,-34.047 -18.42,0 -33.49,15.075 -33.49,34.047 0,17.864 15.07,33.493 33.49,33.493 18.42,0 33.49,-15.629 33.49,-33.493 z m 131.17,-103.254 0,-218.804 c 0,-15.071 -9.49,-27.352 -25.12,-32.375 -27.35,-8.93 -56.37,-14.516 -87.07,-14.516 -74.8,0 -112.75,37.402 -112.75,109.961 l 0,155.734 c 0,16.743 12.28,28.465 28.47,28.465 16.74,0 29.02,-11.722 29.02,-28.465 l 0,-157.964 c 0,-35.723 18.42,-55.258 55.26,-55.258 18.98,0 36.84,3.347 54.7,7.816 l 0,205.406 c 0,16.743 12.28,28.465 28.47,28.465 16.74,0 29.02,-11.722 29.02,-28.465" /><path
             id="path26"
             style="fill:#4f4c4c;fill-opacity:1;fill-rule:nonzero;stroke:none"
             d="m 2272.77,760.277 0,-155.726 c 0,-16.75 -12.27,-28.473 -28.46,-28.473 -16.75,0 -29.03,11.723 -29.03,28.473 l 0,157.957 c 0,35.168 -18.97,54.703 -55.26,54.703 -18.97,0 -37.39,-2.793 -54.69,-7.813 l 0,-204.847 c 0,-16.75 -12.28,-28.473 -28.47,-28.473 -16.75,0 -29.03,11.723 -29.03,28.473 l 0,218.242 c 0,15.629 8.94,27.91 25.12,32.93 27.35,8.929 56.38,14.515 87.07,14.515 74.8,0 112.75,-37.957 112.75,-109.961" /><path
             id="path28"
             style="fill:#4f4c4c;fill-opacity:1;fill-rule:nonzero;stroke:none"
             d="m 2532.88,850.703 c 8.93,-5.023 14.51,-13.957 14.51,-24.004 0,-15.07 -10.61,-26.234 -25.68,-26.234 -11.16,0 -17.3,4.465 -27.91,8.933 -11.16,4.465 -25.11,7.813 -42.42,7.813 -33.49,0 -54.14,-20.094 -54.14,-59.164 l 0,-69.77 c 0,-39.074 20.09,-59.726 54.14,-59.726 17.31,0 31.82,3.902 42.98,8.929 9.49,3.907 16.19,7.817 26.24,7.817 15.63,0 26.79,-10.606 26.79,-26.234 0,-10.051 -5.58,-18.981 -14.51,-24 -22.33,-11.731 -51.36,-18.985 -80.38,-18.985 -69.21,0 -112.75,42.985 -112.75,112.199 l 0,69.77 c 0,72 46.32,112.191 112.75,112.191 29.02,0 58.05,-7.254 80.38,-19.535" /><path
             id="path30"
             style="fill:#4f4c4c;fill-opacity:1;fill-rule:nonzero;stroke:none"
             d="m 2656.23,950.055 0,-96.008 c 18.41,10.051 44.09,16.191 62.51,16.191 67.54,0 104.93,-39.633 104.93,-111.078 l 0,-154.609 c 0,-16.75 -12.27,-28.473 -28.46,-28.473 -16.75,0 -29.03,11.723 -29.03,28.473 l 0,157.957 c 0,36.285 -19.53,54.703 -54.14,54.703 -19.54,0 -38.51,-6.141 -55.81,-19.535 l 0,-193.125 c 0,-16.75 -12.28,-28.473 -28.47,-28.473 -16.75,0 -29.03,11.723 -29.03,28.473 l 0,345.504 c 0,16.746 12.28,28.465 29.03,28.465 16.19,0 28.47,-11.719 28.47,-28.465" /><path
             id="path32"
             style="fill:#4f4c4c;fill-opacity:1;fill-rule:nonzero;stroke:none"
             d="m 2948.13,759.723 0,-10.051 109.97,0 0,8.375 c 0,37.398 -16.19,59.164 -54.7,59.164 -38.52,0 -55.27,-21.766 -55.27,-57.488 z m 167.46,-1.676 0,-27.356 c 0,-16.183 -12.84,-34.046 -35.17,-34.046 l -132.29,0 0,-10.606 c 0,-29.023 14.52,-57.488 55.27,-57.488 24.56,0 41.86,6.14 56.38,11.722 8.36,3.348 13.95,5.024 19.53,5.024 15.07,0 26.23,-11.723 26.23,-26.234 0,-10.051 -4.47,-18.981 -15.07,-24 -25.12,-12.84 -65.86,-18.985 -87.07,-18.985 -72,0 -112.76,48.008 -112.76,112.199 l 0,69.77 c 0,67.539 43.54,112.191 112.76,112.191 68.65,0 112.19,-45.215 112.19,-112.191" /><path
             id="path34"
             style="fill:#4f4c4c;fill-opacity:1;fill-rule:nonzero;stroke:none"
             d="m 3410.85,760.277 0,-155.726 c 0,-16.75 -12.28,-28.473 -28.47,-28.473 -16.74,0 -29.02,11.723 -29.02,28.473 l 0,157.957 c 0,35.168 -18.98,54.703 -55.25,54.703 -18.99,0 -37.41,-2.793 -54.71,-7.813 l 0,-204.847 c 0,-16.75 -12.28,-28.473 -28.47,-28.473 -16.74,0 -29.02,11.723 -29.02,28.473 l 0,218.242 c 0,15.629 8.93,27.91 25.12,32.93 27.35,8.929 56.37,14.515 87.08,14.515 74.79,0 112.74,-37.957 112.74,-109.961" /><path
             id="path36"
             style="fill:#4f4c4c;fill-opacity:1;fill-rule:nonzero;stroke:none"
             d="m 3535.31,759.723 0,-10.051 109.96,0 0,8.375 c 0,37.398 -16.18,59.164 -54.69,59.164 -38.52,0 -55.27,-21.766 -55.27,-57.488 z m 167.45,-1.676 0,-27.356 c 0,-16.183 -12.83,-34.046 -35.16,-34.046 l -132.29,0 0,-10.606 c 0,-29.023 14.51,-57.488 55.27,-57.488 24.56,0 41.86,6.14 56.37,11.722 8.37,3.348 13.96,5.024 19.53,5.024 15.07,0 26.23,-11.723 26.23,-26.234 0,-10.051 -4.46,-18.981 -15.06,-24 -25.12,-12.84 -65.86,-18.985 -87.07,-18.985 -72.01,0 -112.76,48.008 -112.76,112.199 l 0,69.77 c 0,67.539 43.54,112.191 112.76,112.191 68.65,0 112.18,-45.215 112.18,-112.191" /><path
             id="path38"
             style="fill:#4f4c4c;fill-opacity:1;fill-rule:nonzero;stroke:none"
             d="m 3898.67,866.328 c 14.51,-2.789 22.89,-12.836 22.89,-27.348 0,-15.07 -11.16,-26.238 -27.35,-26.238 -8.37,0 -19.53,3.352 -33.49,3.352 -17.86,0 -30.14,-12.281 -30.14,-31.817 l 0,-179.726 c 0,-16.75 -12.28,-28.473 -28.47,-28.473 -16.74,0 -29.02,11.723 -29.02,28.473 l 0,181.398 c 0,51.91 32.93,84.289 83.73,84.289 16.18,0 31.25,-1.675 41.85,-3.91" /><path
             id="path40"
             style="fill:#4f4c4c;fill-opacity:1;fill-rule:nonzero;stroke:none"
             d="m 4306.68,842.328 c 0,-4.469 -1.12,-9.488 -2.79,-14.512 L 4227.98,602.32 c -6.7,-19.543 -21.77,-26.242 -37.4,-26.242 -15.63,0 -31.26,6.699 -37.95,26.242 l -75.92,226.61 c -1.67,5.023 -2.78,8.929 -2.78,13.398 0,13.957 9.48,27.91 28.46,27.91 13.39,0 23.44,-7.254 27.35,-20.097 l 60.84,-190.895 60.84,190.895 c 4.47,13.398 13.95,20.097 27.35,20.097 18.97,0 27.91,-13.953 27.91,-27.91" /><path
             id="path42"
             style="fill:#4f4c4c;fill-opacity:1;fill-rule:nonzero;stroke:none"
             d="m 4406.58,759.723 0,-10.051 109.96,0 0,8.375 c 0,37.398 -16.18,59.164 -54.69,59.164 -38.52,0 -55.27,-21.766 -55.27,-57.488 z m 167.45,-1.676 0,-27.356 c 0,-16.183 -12.83,-34.046 -35.16,-34.046 l -132.29,0 0,-10.606 c 0,-29.023 14.51,-57.488 55.27,-57.488 24.56,0 41.86,6.14 56.37,11.722 8.37,3.348 13.96,5.024 19.53,5.024 15.07,0 26.23,-11.723 26.23,-26.234 0,-10.051 -4.46,-18.981 -15.06,-24 -25.12,-12.84 -65.86,-18.985 -87.07,-18.985 -72.01,0 -112.76,48.008 -112.76,112.199 l 0,69.77 c 0,67.539 43.54,112.191 112.76,112.191 68.65,0 112.18,-45.215 112.18,-112.191" /><path
             id="path44"
             style="fill:#4f4c4c;fill-opacity:1;fill-rule:nonzero;stroke:none"
             d="m 4769.94,866.328 c 14.51,-2.789 22.89,-12.836 22.89,-27.348 0,-15.07 -11.16,-26.238 -27.35,-26.238 -8.37,0 -19.53,3.352 -33.49,3.352 -17.86,0 -30.14,-12.281 -30.14,-31.817 l 0,-179.726 c 0,-16.75 -12.28,-28.473 -28.47,-28.473 -16.74,0 -29.02,11.723 -29.02,28.473 l 0,181.398 c 0,51.91 32.93,84.289 83.73,84.289 16.18,0 31.25,-1.675 41.85,-3.91" /><path
             id="path46"
             style="fill:#4f4c4c;fill-opacity:1;fill-rule:nonzero;stroke:none"
             d="m 4886.04,759.723 0,-10.051 109.96,0 0,8.375 c 0,37.398 -16.19,59.164 -54.7,59.164 -38.52,0 -55.26,-21.766 -55.26,-57.488 z m 167.45,-1.676 0,-27.356 c 0,-16.183 -12.84,-34.046 -35.17,-34.046 l -132.28,0 0,-10.606 c 0,-29.023 14.51,-57.488 55.26,-57.488 24.56,0 41.86,6.14 56.38,11.722 8.36,3.348 13.95,5.024 19.53,5.024 15.07,0 26.23,-11.723 26.23,-26.234 0,-10.051 -4.47,-18.981 -15.07,-24 -25.12,-12.84 -65.86,-18.985 -87.07,-18.985 -72,0 -112.76,48.008 -112.76,112.199 l 0,69.77 c 0,67.539 43.54,112.191 112.76,112.191 68.65,0 112.19,-45.215 112.19,-112.191" /><path
             id="path48"
             style="fill:#4f4c4c;fill-opacity:1;fill-rule:nonzero;stroke:none"
             d="m 5181.3,841.773 0,-237.222 c 0,-16.75 -11.72,-28.473 -28.47,-28.473 -16.74,0 -29.02,11.723 -29.02,28.473 l 0,237.222 c 0,16.743 12.28,28.465 29.02,28.465 16.75,0 28.47,-11.722 28.47,-28.465 z m 5.03,103.254 c 0,-18.972 -15.07,-34.047 -33.5,-34.047 -18.42,0 -33.48,15.075 -33.48,34.047 0,18.422 15.06,33.493 33.48,33.493 18.43,0 33.5,-15.071 33.5,-33.493" /><path
             id="path50"
             style="fill:#4f4c4c;fill-opacity:1;fill-rule:nonzero;stroke:none"
             d="m 5486.61,760.277 0,-155.726 c 0,-16.75 -12.27,-28.473 -28.47,-28.473 -16.73,0 -29.02,11.723 -29.02,28.473 l 0,157.957 c 0,35.168 -18.97,54.703 -55.25,54.703 -18.99,0 -37.41,-2.793 -54.71,-7.813 l 0,-204.847 c 0,-16.75 -12.28,-28.473 -28.47,-28.473 -16.73,0 -29.02,11.723 -29.02,28.473 l 0,218.242 c 0,15.629 8.94,27.91 25.12,32.93 27.35,8.929 56.37,14.515 87.08,14.515 74.79,0 112.74,-37.957 112.74,-109.961" /><path
             id="path52"
             style="fill:#4f4c4c;fill-opacity:1;fill-rule:nonzero;stroke:none"
             d="m 1452.1,272.199 c 9.96,0 16.08,-6.879 16.08,-14.929 0,-2.68 -1.14,-5.739 -3.06,-8.418 l -134.76,-219.7504 126.72,0 c 7.28,0 12.63,-4.9727 12.63,-12.6328 0,-7.66021 -5.35,-12.64067 -12.63,-12.64067 l -145.86,0 c -9.57,0 -15.32,6.90237 -15.32,14.55077 0,3.0625 0.77,6.1328 3.06,9.5703 l 134.77,218.9918 -124.43,0 c -7.27,0 -12.63,4.981 -12.63,12.629 0,7.282 5.36,12.629 12.63,12.629 l 142.8,0" /><path
             id="path54"
             style="fill:#4f4c4c;fill-opacity:1;fill-rule:nonzero;stroke:none"
             d="m 1651.92,186.07 0,-160.8005 C 1651.92,18 1647.71,12.25 1639.28,9.57031 1620.52,3.44922 1601.77,0 1581.47,0 c -47.09,0 -70.82,25.2695 -70.82,68.5313 l 0,117.5387 c 0,7.649 5.36,13.02 13.02,13.02 7.27,0 13.01,-5.371 13.01,-13.02 l 0,-118.3005 c 0,-27.5703 15.32,-43.6406 44.79,-43.6406 15.32,0 30.25,2.6719 44.41,6.8828 l 0,155.0583 c 0,7.649 5.75,13.02 13.02,13.02 7.66,0 13.02,-5.371 13.02,-13.02" /><path
             id="path56"
             style="fill:#4f4c4c;fill-opacity:1;fill-rule:nonzero;stroke:none"
             d="m 1739.94,263.02 0,-136.68 81.16,68.922 c 3.45,2.668 6.51,3.828 9.95,3.828 6.9,0 12.26,-4.981 12.26,-12.641 0,-3.449 -1.15,-6.898 -4.98,-9.949 l -78.87,-65.469 83.46,-89.5896 c 2.69,-2.6797 3.83,-5.3633 3.83,-8.8008 C 1846.75,6.12891 1842.16,0 1834.12,0 c -4.21,0 -6.89,1.16016 -9.95,4.58984 l -84.23,91.89066 0,-83.461 C 1739.94,5.37109 1734.19,0 1726.92,0 c -7.27,0 -13.01,5.37109 -13.01,13.0195 l 0,250.0005 c 0,7.66 5.36,13.011 13.01,13.011 7.66,0 13.02,-5.351 13.02,-13.011" /><path
             id="path58"
             style="fill:#4f4c4c;fill-opacity:1;fill-rule:nonzero;stroke:none"
             d="m 2028.57,186.07 0,-160.8005 C 2028.57,18 2024.36,12.25 2015.94,9.57031 1997.18,3.44922 1978.42,0 1958.13,0 1911.04,0 1887.3,25.2695 1887.3,68.5313 l 0,117.5387 c 0,7.649 5.37,13.02 13.02,13.02 7.27,0 13.02,-5.371 13.02,-13.02 l 0,-118.3005 c 0,-27.5703 15.31,-43.6406 44.79,-43.6406 15.31,0 30.24,2.6719 44.41,6.8828 l 0,155.0583 c 0,7.649 5.74,13.02 13.02,13.02 7.65,0 13.01,-5.371 13.01,-13.02" /><path
             id="path60"
             style="fill:#4f4c4c;fill-opacity:1;fill-rule:nonzero;stroke:none"
             d="m 2232.21,130.551 0,-117.5315 C 2232.21,5.37109 2226.47,0 2219.19,0 c -7.65,0 -13.01,5.37109 -13.01,13.0195 l 0,117.9105 c 0,27.949 -15.7,44.039 -44.79,44.039 -15.7,0 -30.25,-2.688 -44.79,-6.899 l 0,-155.0505 C 2116.6,5.37109 2111.24,0 2103.58,0 c -7.28,0 -13.02,5.37109 -13.02,13.0195 l 0,160.4105 c 0,7.66 4.21,13.398 13.02,16.09 18.76,5.742 37.13,9.57 57.81,9.57 46.71,0 70.82,-25.281 70.82,-68.539" /><path
             id="path62"
             style="fill:#4f4c4c;fill-opacity:1;fill-rule:nonzero;stroke:none"
             d="m 2365.02,274.121 c 6.13,-1.531 10.72,-5.359 10.72,-11.871 0,-6.5 -5.36,-11.102 -11.87,-11.102 -4.97,0 -8.8,1.911 -19.14,1.911 -16.46,0 -26.8,-11.481 -26.8,-25.637 l 0,-32.16 44.79,0 c 8.05,0 13.02,-5.364 13.02,-12.641 0,-6.891 -4.97,-12.25 -13.02,-12.25 l -44.79,0 0,-157.3515 C 2317.93,4.98047 2312.19,0 2304.92,0 c -7.28,0 -13.02,5.37109 -13.02,13.0195 l 0,211.7105 c 0,32.161 21.05,51.301 51.68,51.301 7.66,0 13.02,-0.383 21.44,-1.91" /><path
             id="path64"
             style="fill:#4f4c4c;fill-opacity:1;fill-rule:nonzero;stroke:none"
             d="m 2435.83,263.02 0,-67.758 44.8,0 c 8.04,0 13.01,-5.364 13.01,-12.641 0,-6.891 -4.97,-12.25 -13.01,-12.25 l -44.8,0 0,-115.9999 c 0,-19.9102 9.58,-29.8594 26.42,-29.8594 10.34,0 13.78,1.9102 18.76,1.9102 6.89,0 12.63,-4.211 12.63,-12.2617 0,-6.50004 -4.21,-11.08989 -11.1,-12.23832 C 2474.5,0.390625 2469.14,0 2461.48,0 2432,0 2409.8,18.3789 2409.8,54.75 l 0,208.27 c 0,7.66 5.74,13.011 13.02,13.011 7.65,0 13.01,-5.351 13.01,-13.011" /><path
             id="path66"
             style="fill:#4f4c4c;fill-opacity:1;fill-rule:nonzero;stroke:none"
             d="M 2562.15,18.7617 C 2562.15,8.80859 2553.73,0 2543.39,0 c -9.95,0 -18.76,8.42188 -18.76,18.7617 0,10.3399 8.81,18.7578 18.76,18.7578 10.34,0 18.76,-8.4179 18.76,-18.7578" /><path
             id="path68"
             style="fill:#4f4c4c;fill-opacity:1;fill-rule:nonzero;stroke:none"
             d="m 2729.81,263.02 0,-250.0005 C 2729.81,5.37109 2723.69,0 2716.41,0 c -7.27,0 -13.4,5.37109 -13.4,13.0195 l 0,250.0005 c 0,7.66 6.13,13.011 13.4,13.011 7.28,0 13.4,-5.351 13.4,-13.011" /><path
             id="path70"
             style="fill:#4f4c4c;fill-opacity:1;fill-rule:nonzero;stroke:none"
             d="m 2935.38,130.551 0,-117.5315 C 2935.38,5.37109 2929.64,0 2922.36,0 c -7.65,0 -13.01,5.37109 -13.01,13.0195 l 0,117.9105 c 0,27.949 -15.71,44.039 -44.8,44.039 -15.69,0 -30.24,-2.688 -44.79,-6.899 l 0,-155.0505 C 2819.76,5.37109 2814.39,0 2806.74,0 c -7.27,0 -13.01,5.37109 -13.01,13.0195 l 0,160.4105 c 0,7.66 4.2,13.398 13.01,16.09 18.76,5.742 37.14,9.57 57.81,9.57 46.71,0 70.83,-25.281 70.83,-68.539" /><path
             id="path72"
             style="fill:#4f4c4c;fill-opacity:1;fill-rule:nonzero;stroke:none"
             d="m 3121.39,158.121 0,-127.4921 c 14.17,-4.5898 29.48,-6.5 44.79,-6.5 28.71,0 44.8,16.8399 44.8,44.0195 l 0,62.7816 c 0,27.949 -16.09,44.039 -44.8,44.039 -16.08,0 -32.16,-6.129 -44.79,-16.848 z m 0,104.899 0,-78.872 c 14.93,10.34 32.55,14.942 47.09,14.942 39.81,0 68.53,-23.36 68.53,-69.68 l 0,-59.3514 C 3237.01,23.3516 3208.68,0 3166.18,0 3145.51,0 3125.21,3.07031 3106.46,9.96094 3099.57,12.25 3095.35,18 3095.35,25.6602 l 0,237.3598 c 0,7.66 5.74,13.011 13.02,13.011 7.66,0 13.02,-5.351 13.02,-13.011" /><path
             id="path74"
             style="fill:#4f4c4c;fill-opacity:1;fill-rule:nonzero;stroke:none"
             d="m 3311.63,129.789 0,-15.309 89.59,0 0,14.54 c 0,28.332 -15.32,45.949 -44.79,45.949 -29.49,0 -44.8,-17.617 -44.8,-45.18 z m 115.62,-1.148 0,-22.211 c 0,-8.0394 -6.13,-16.4612 -16.85,-16.4612 l -98.77,0 0,-20.668 c 0,-25.2695 14.55,-45.1719 44.8,-45.1719 16.84,0 29.86,3.8203 42.49,8.793 4.21,1.539 6.51,2.3086 9.19,2.3086 6.89,0 12.25,-5.3594 12.25,-11.8789 0,-4.9727 -2.3,-8.8008 -7.27,-11.1016 C 3396.24,4.58984 3372.5,0 3356.43,0 c -44.8,0 -70.83,29.4883 -70.83,70.4414 l 0,58.1996 c 0,42.5 27.56,70.449 70.83,70.449 43.64,0 70.82,-28.328 70.82,-70.449" /><path
             id="path76"
             style="fill:#4f4c4c;fill-opacity:1;fill-rule:nonzero;stroke:none"
             d="m 3579.97,188.738 c 4.97,-2.289 7.66,-6.117 7.66,-11.097 0,-7.27 -5.75,-11.86 -11.87,-11.86 -2.68,0 -6.13,0.758 -9.19,1.91 -10.72,4.207 -20.67,7.278 -35.22,7.278 -17.23,0 -34.84,-9.578 -34.84,-27.571 0,-14.546 11.49,-22.207 24.89,-27.949 l 33.3,-14.16 c 22.59,-9.5702 37.91,-24.1171 37.91,-49.7773 C 3592.61,23.3516 3568.49,0 3530.59,0 c -20.3,0 -37.9,4.58984 -52.07,11.4883 -4.59,2.293 -7.28,5.7422 -7.28,10.7226 0,7.2774 4.98,11.8672 11.87,11.8672 2.3,0 5.75,-1.539 8.8,-2.6797 8.43,-3.0703 20.68,-7.2695 37.52,-7.2695 22.59,0 37.9,13.3906 37.9,30.6211 0,13.3984 -11.1,24.5 -32.92,33.3086 l -28.33,11.8711 c -16.46,6.8903 -34.84,19.1403 -34.84,47.8513 0,31.008 26.04,51.309 59.73,51.309 17.6,0 35.22,-4.219 49,-10.352" /><path
             id="path78"
             style="fill:#4f4c4c;fill-opacity:1;fill-rule:nonzero;stroke:none"
             d="m 3670.67,263.02 0,-67.758 44.8,0 c 8.04,0 13.02,-5.364 13.02,-12.641 0,-6.891 -4.98,-12.25 -13.02,-12.25 l -44.8,0 0,-115.9999 c 0,-19.9102 9.57,-29.8594 26.42,-29.8594 10.34,0 13.79,1.9102 18.76,1.9102 6.89,0 12.64,-4.211 12.64,-12.2617 0,-6.50004 -4.21,-11.08989 -11.11,-12.23832 C 3709.35,0.390625 3703.98,0 3696.33,0 c -29.48,0 -51.69,18.3789 -51.69,54.75 l 0,208.27 c 0,7.66 5.75,13.011 13.02,13.011 7.65,0 13.01,-5.351 13.01,-13.011" /><path
             id="path80"
             style="fill:#4f4c4c;fill-opacity:1;fill-rule:nonzero;stroke:none"
             d="m 3783.98,129.789 0,-15.309 89.59,0 0,14.54 c 0,28.332 -15.32,45.949 -44.79,45.949 -29.48,0 -44.8,-17.617 -44.8,-45.18 z m 115.62,-1.148 0,-22.211 c 0,-8.0394 -6.12,-16.4612 -16.85,-16.4612 l -98.77,0 0,-20.668 c 0,-25.2695 14.56,-45.1719 44.8,-45.1719 16.85,0 29.86,3.8203 42.49,8.793 4.22,1.539 6.51,2.3086 9.19,2.3086 6.89,0 12.25,-5.3594 12.25,-11.8789 0,-4.9727 -2.3,-8.8008 -7.27,-11.1016 C 3868.59,4.58984 3844.85,0 3828.78,0 c -44.8,0 -70.83,29.4883 -70.83,70.4414 l 0,58.1996 c 0,42.5 27.57,70.449 70.83,70.449 43.64,0 70.82,-28.328 70.82,-70.449" /><path
             id="path82"
             style="fill:#4f4c4c;fill-opacity:1;fill-rule:nonzero;stroke:none"
             d="m 4095.21,130.551 0,-117.5315 C 4095.21,5.37109 4089.46,0 4082.19,0 c -7.66,0 -13.02,5.37109 -13.02,13.0195 l 0,117.9105 c 0,27.949 -15.7,44.039 -44.79,44.039 -15.7,0 -30.25,-2.688 -44.8,-6.899 l 0,-155.0505 C 3979.58,5.37109 3974.22,0 3966.56,0 c -7.26,0 -13.02,5.37109 -13.02,13.0195 l 0,160.4105 c 0,7.66 4.22,13.398 13.02,16.09 18.76,5.742 37.14,9.57 57.82,9.57 46.7,0 70.83,-25.281 70.83,-68.539" /><path
             id="path84"
             style="fill:#4f4c4c;fill-opacity:1;fill-rule:nonzero;stroke:none"
             d="m 4425.93,263.02 0,-250.0005 C 4425.93,5.37109 4419.8,0 4412.91,0 c -7.28,0 -13.4,5.37109 -13.4,13.0195 l 0,117.5315 -115.61,0 0,-117.5315 C 4283.9,5.37109 4277.76,0 4270.5,0 c -7.28,0 -13.41,5.37109 -13.41,13.0195 l 0,250.0005 c 0,7.66 6.13,13.011 13.41,13.011 7.26,0 13.4,-5.351 13.4,-13.011 l 0,-106.809 115.61,0 0,106.809 c 0,7.66 6.12,13.011 13.4,13.011 6.89,0 13.02,-5.351 13.02,-13.011" /><path
             id="path86"
             style="fill:#4f4c4c;fill-opacity:1;fill-rule:nonzero;stroke:none"
             d="m 4605.06,251.148 c 0,-8.796 -7.27,-16.468 -16.46,-16.468 -9.19,0 -16.46,7.672 -16.46,16.468 0,9.192 7.27,16.461 16.46,16.461 9.19,0 16.46,-7.269 16.46,-16.461 z m -67.37,0 c 0,-8.796 -7.28,-16.468 -16.47,-16.468 -9.19,0 -16.46,7.672 -16.46,16.468 0,9.192 7.27,16.461 16.46,16.461 9.19,0 16.47,-7.269 16.47,-16.461 z m 14.16,-158.4996 c -27.95,0 -48.24,-9.1875 -48.24,-34.4492 0,-27.1875 20.29,-34.0703 49.39,-34.0703 13.4,0 26.79,2.293 40.19,6.1211 l 0,62.3984 -41.34,0 z m 67.38,49.3906 0,-117.5273 c 0,-6.9023 -3.45,-13.0234 -11.1,-15.70311 C 4592.81,3.44922 4572.52,0 4553,0 c -45.18,0 -75.42,16.4688 -75.42,58.5781 0,42.1129 34.83,58.1919 75.04,58.1919 l 40.57,0 0,25.269 c 0,19.531 -14.93,32.93 -40.57,32.93 -13.79,0 -26.04,-2.688 -38.29,-8.809 -4.59,-2.301 -8.42,-4.211 -13.02,-4.211 -5.74,0 -11.87,4.981 -11.87,11.86 0,4.601 2.3,8.429 6.13,10.73 13.39,7.652 33.31,14.551 55.89,14.551 37.52,0 67.77,-18.762 67.77,-57.051" /><path
             id="path88"
             style="fill:#4f4c4c;fill-opacity:1;fill-rule:nonzero;stroke:none"
             d="m 4820.2,130.551 0,-117.5315 C 4820.2,5.37109 4814.45,0 4807.18,0 c -7.66,0 -13.02,5.37109 -13.02,13.0195 l 0,117.9105 c 0,27.949 -15.7,44.039 -44.79,44.039 -15.7,0 -30.25,-2.688 -44.8,-6.899 l 0,-155.0505 C 4704.57,5.37109 4699.21,0 4691.55,0 c -7.27,0 -13.01,5.37109 -13.01,13.0195 l 0,160.4105 c 0,7.66 4.21,13.398 13.01,16.09 18.76,5.742 37.14,9.57 57.82,9.57 46.7,0 70.83,-25.281 70.83,-68.539" /><path
             id="path90"
             style="fill:#4f4c4c;fill-opacity:1;fill-rule:nonzero;stroke:none"
             d="m 4900.17,130.93 0,-63.1605 c 0,-27.1797 16.46,-43.6406 45.17,-43.6406 15.31,0 30.63,1.9102 44.8,6.5 l 0,127.4921 c -13.02,10.719 -29.1,16.848 -44.8,16.848 -28.71,0 -45.17,-16.09 -45.17,-44.039 z m 116,132.09 0,-237.3598 C 5016.17,18 5011.57,12.25 5004.69,9.96094 4985.93,3.07031 4965.63,0 4945.34,0 c -42.49,0 -71.21,22.9688 -71.21,69.6797 l 0,59.7303 c 0,46.32 29.1,69.68 68.54,69.68 14.93,0 32.54,-4.602 47.47,-14.942 l 0,78.872 c 0,7.66 5.36,13.011 13.01,13.011 7.28,0 13.02,-5.351 13.02,-13.011" /><path
             id="path92"
             style="fill:#4f4c4c;fill-opacity:1;fill-rule:nonzero;stroke:none"
             d="m 5096.15,129.789 0,-15.309 89.59,0 0,14.54 c 0,28.332 -15.32,45.949 -44.79,45.949 -29.49,0 -44.8,-17.617 -44.8,-45.18 z m 115.62,-1.148 0,-22.211 c 0,-8.0394 -6.13,-16.4612 -16.85,-16.4612 l -98.77,0 0,-20.668 c 0,-25.2695 14.55,-45.1719 44.8,-45.1719 16.84,0 29.86,3.8203 42.49,8.793 4.22,1.539 6.51,2.3086 9.19,2.3086 6.89,0 12.25,-5.3594 12.25,-11.8789 0,-4.9727 -2.3,-8.8008 -7.27,-11.1016 C 5180.76,4.58984 5157.02,0 5140.95,0 c -44.8,0 -70.83,29.4883 -70.83,70.4414 l 0,58.1996 c 0,42.5 27.57,70.449 70.83,70.449 43.64,0 70.82,-28.328 70.82,-70.449" /><path
             id="path94"
             style="fill:#4f4c4c;fill-opacity:1;fill-rule:nonzero;stroke:none"
             d="m 5407.37,130.551 0,-117.5315 C 5407.37,5.37109 5401.63,0 5394.36,0 c -7.66,0 -13.02,5.37109 -13.02,13.0195 l 0,117.9105 c 0,27.949 -15.71,44.039 -44.8,44.039 -15.69,0 -30.24,-2.688 -44.79,-6.899 l 0,-155.0505 C 5291.75,5.37109 5286.39,0 5278.73,0 c -7.27,0 -13.02,5.37109 -13.02,13.0195 l 0,160.4105 c 0,7.66 4.22,13.398 13.02,16.09 18.76,5.742 37.14,9.57 57.81,9.57 46.71,0 70.83,-25.281 70.83,-68.539" /><path
             id="path96"
             style="fill:#4f4c4c;fill-opacity:1;fill-rule:nonzero;stroke:none"
             d="M 5496.54,18.7617 C 5496.54,8.80859 5488.13,0 5477.78,0 c -9.95,0 -18.76,8.42188 -18.76,18.7617 0,10.3399 8.81,18.7578 18.76,18.7578 10.35,0 18.76,-8.4179 18.76,-18.7578" /><path
             id="path98"
             style="fill:#079ae1;fill-opacity:1;fill-rule:nonzero;stroke:none"
             d="m 0,776.195 c 0,277.655 225.039,502.735 502.793,502.735 277.695,0 502.847,-225.08 502.847,-502.735 0,-277.773 -225.152,-502.816 -502.847,-502.816 C 225.039,273.379 0,498.422 0,776.195" /><path
             id="path100"
             style="fill:#ffffff;fill-opacity:1;fill-rule:nonzero;stroke:none"
             d="m 535.371,885.57 c -25.273,0 -54.16,-8.554 -76.68,-22.5 -18.847,14.961 -42.636,22.5 -70.918,22.5 -28.964,0 -59.003,-5 -89.16,-14.882 -18.32,-5.86 -29.687,-20.899 -29.687,-39.18 l 0,-218.281 c 0,-20.664 14.961,-35.664 35.566,-35.664 20.645,0 35.039,14.687 35.039,35.664 l 0,199.882 c 16.114,4.297 30.528,6.289 46.035,6.289 10.684,0 18.282,-1.64 24.727,-5.351 8.965,-5.039 13.477,-12.695 13.477,-22.852 l 0,-177.968 c 0,-20.664 14.96,-35.664 35.566,-35.664 20.644,0 35.039,14.687 35.039,35.664 l 0,193.437 c 14.004,8.555 27.598,12.734 41.563,12.734 26.718,0 42.636,-16.601 42.636,-44.414 l 0,-161.757 c 0,-20.664 15,-35.664 35.606,-35.664 20.625,0 35.039,14.687 35.039,35.664 l 0,159.492 c 0,70.664 -42.559,112.851 -113.848,112.851" /><path
             id="path102"
             style="fill:#ffffff;fill-opacity:1;fill-rule:nonzero;stroke:none"
             d="m 797.383,673.93 -55.449,186.328 c -4.668,15.469 -17.286,24.726 -33.594,24.726 -23.047,0 -35.078,-17.343 -35.078,-34.453 0,-5.664 1.465,-10.547 3.105,-15.508 L 752.5,608.266 c 6.68,-19.493 22.793,-30.703 44.199,-30.703 21.348,0 36.875,10.937 43.555,30.429 l 135.684,338.672 c -10.528,29.219 -23.77,57.146 -39.278,83.596 -3.437,-3.71 -6.367,-8.01 -8.203,-13.48 L 797.383,673.93" /></g></g></g></g></svg>