<svg xmlns="http://www.w3.org/2000/svg" version="1.1"
   width="200" height="52"
   viewBox="5 22 155 43">
  <path
     fill="none"
     stroke="#000000"
     stroke-width="2.2"
     stroke-linejoin="round"
     stroke-linecap="round"
     d="m 117.39538,25.81775 -7.46125,0 -8.4575,12.3025 0,-12.3025 -5.97,0 0,35.81625 5.97,0
        0,-13.45125 9.4525,13.45 7.46126,0 L 104.95914,43.229 117.39538,25.81775 z
        m 31.33825,15.9185 0,-10.44625 c 0.96126,0 2.3625,0 2.98501,0 3.4825,0 5.96875,1.99
        5.96875,4.975 0,2.48625 -1.98876,5.47125 -5.96875,5.47125 -0.6225,0 -2.02375,0 -2.98501,0
        m 5.97,4.975 c 5.46001,-1.1275 8.45625,-5.41875 8.45625,-10.44625 0,-5.97
        -4.47875,-10.44625 -11.93874,-10.44625 l -8.45626,0 0,35.81625 5.96875,0 0,-13.93
        9.4525,13.92875 7.46125,0 -10.94375,-14.9225 z
        m -70.63775,14.923 6.4675,0 0,-35.81625 -6.4675,0 0,35.81625 z
        M 62.67625,31.788 l 5.96875,0 0,29.84625 6.46751,0 0,-29.84625 5.96875,0 0,-5.97
        -18.40501,0 0,5.97 z
        m 57.70325,29.846 17.90751,0 0,-5.96875 -11.9375,0 0,-9.45125 11.9375,0 0,-5.97
        -11.9375,0 0,-8.45625 11.9375,0 0,-5.97 -17.90876,0 0.001,35.81625 z
        M 26.86088,55.1675 c -6.59375,0 -11.44125,-4.8475 -11.44125,-11.44125
        0,-6.59375 4.8475,-11.44125 11.44125,-11.44125 6.59375,0 11.44125,4.8475
        11.44125,11.44125 0,6.59375 -4.8475,11.44125 -11.44125,11.44125
        M 41.78463,33.82625 C 38.57588,29 33.09088,25.81875 26.86088,25.81875
        c -9.89,0 -17.9075,8.0175 -17.9075,17.9075 0,9.89 8.0175,17.9075 17.9075,17.9075
        6.23,0 11.715,-3.18125 14.92375,-8.00875 l 0,8.00875 17.9075,0 0,-5.96875
        -11.93875,0 0,-9.45125 11.93875,-10e-4 0,-5.96875 -11.93875,0 0,-8.45625
        11.93875,0 0,-5.96875 -17.9075,0 0,8.0075 z"/>
</svg>
