<svg id="Ebene_1" data-name="Ebene 1" xmlns="http://www.w3.org/2000/svg" viewBox="0 0 500 246.8"><defs><style>.cls-1{fill:#1a1a18;}</style></defs><title>wmf-group_sw [Konvertiert]</title><path class="cls-1" d="M497.82,23.21h-6V-52.61h6v10.53H498c2.54-7.23,8-11.73,14.52-11.73,11.19,0,18,10.53,18,27.89v0.76c0,15.83-7.15,26-18.24,26-7,0-11.87-3.92-14.3-11.62h-0.22v34m14-72.73c-4.07,0-7.8,2.94-10.46,8.35a36.06,36.06,0,0,0-3.52,14.05,38.47,38.47,0,0,0,3.3,14.81c2.66,5.85,6.39,8.9,10.79,8.9,7.23,0,11.95-9,11.95-22.62,0-14.37-4.72-23.49-12.06-23.49M310.32,21.76a35.12,35.12,0,0,1-12.64-2V12.32c7.15,3.52,9.87,4.28,14.27,4.28,6.06,0,10.46-2.4,12.74-7.15C326.36,6,327,1.42,327-6v-6.06H326.8A15.19,15.19,0,0,1,312.28-.32c-11.07,0-18-10.42-18-27.12,0-16.05,7.15-26.37,18.23-26.37a14.56,14.56,0,0,1,14.3,11.62H327V-52.61h6V-3.19c0,17.25-7,24.95-22.73,24.95M313-49.52c-7.34,0-12.06,8.68-12.06,22.08,0,13.83,4.72,22.84,11.95,22.84C320.63-4.61,327-15,327-27.66c0-11.77-6.5-21.86-14-21.86M451.49,0.88c-9.8,0-15.18-6-15.18-17V-52.61h6.07v35c0,8.13,3.26,13,9,13,8.89,0,15.79-10.64,15.79-24.4V-52.61h6.07V-0.32h-6.07v-13H467C464.24-4.18,458.72.88,451.49,0.88m-50.22,0c-13.83,0-21.53-9.87-21.53-27.67,0-16.82,8-27,21.2-27,13.73,0,21.75,10.31,21.75,27.89,0,17-7.81,26.8-21.43,26.8m-0.43-50.4c-9.11,0-14.38,8-14.38,21.86,0,15.69,5.27,24.25,14.81,24.25,10.53,0,15.73-9.33,14.6-26.47-0.87-12.74-6.14-19.64-15-19.64M357.34-.32h-6.07V-52.61h6.07V-41h0.21c4.51-8.35,9.45-12.32,16.16-12.86v7.88h-1.78c-9,0-14.59,7.38-14.59,19.25V-0.32" transform="translate(-30.58 155.04)"/><path class="cls-1" d="M231.23-.25H218V-46.18h-9.37v-6.35H218v-4.29c0-14,6.46-20.44,21.05-20.44A62.71,62.71,0,0,1,251.75-76v8.68a24.69,24.69,0,0,0-10.64-2.43c-4.18,0-6.83,1.31-8.35,4.18-1.2,2.06-1.53,4.18-1.53,9.55v3.52h14.6v6.35h-14.6V-0.25m-32.75,0H185.19V-34.2c0-6.68-1.85-10-5.7-10-6,0-9.59,7.7-9.59,20.45V-0.25H156.62V-32.86c0-4.07-.11-5.63-0.65-7.15-0.87-2.87-2.51-4.18-5.05-4.18-6.35,0-9.55,7.92-9.55,23.39V-0.25H128.08V-52.53h13.29v11.76h0.22c2.51-8.14,8.13-13,15-13,7.16,0,12,4.5,13.18,12.42H170c4.65-9.48,8.24-12.42,15.18-12.42,9,0,13.29,6,13.29,18.55V-0.25m-93.17,0H93.91L83.24-32.1H83L73.47-.25H62.14L48.85-52.53H61.05l8.46,37.36h0.22L80.08-52.53H87L98.3-15.93h0.22L106-52.53h11L105.32-.25" transform="translate(-30.58 155.04)"/><path class="cls-1" d="M154,91.76A123.4,123.4,0,0,1,30.58-31.66,123.37,123.37,0,0,1,154-155,123.4,123.4,0,0,1,277.39-31.66,123.43,123.43,0,0,1,154,91.76h0m0-240.66a116.71,116.71,0,0,0-82.9,34.35A116.81,116.81,0,0,0,36.72-31.66,116.89,116.89,0,0,0,71.07,51.27,116.88,116.88,0,0,0,154,85.62h0A117,117,0,0,0,236.9,51.27a117,117,0,0,0,34.32-82.93,116.91,116.91,0,0,0-34.32-82.89A116.85,116.85,0,0,0,154-148.9" transform="translate(-30.58 155.04)"/></svg>